<svg width="1280" height="500" viewBox="0 0 1280 500" fill="none" xmlns="http://www.w3.org/2000/svg" role="img" aria-label="BrandDocs: extract a company's Word, PowerPoint or Excel template into a reusable Brand Profile, then generate unlimited on-brand documents of the same format. One skill per format, no cross-format conversion.">
  <defs>
    <linearGradient id="bg" x1="0" y1="0" x2="1280" y2="500" gradientUnits="userSpaceOnUse">
      <stop offset="0" stop-color="#0B1022"/>
      <stop offset="0.55" stop-color="#111A36"/>
      <stop offset="1" stop-color="#0C1430"/>
    </linearGradient>
    <linearGradient id="accent" x1="0" y1="0" x2="1" y2="1">
      <stop offset="0" stop-color="#6EA8FE"/>
      <stop offset="1" stop-color="#5B8DEF"/>
    </linearGradient>
    <marker id="arrow" markerWidth="9" markerHeight="9" refX="6" refY="4.5" orient="auto">
      <path d="M0 0 L9 4.5 L0 9 z" fill="#6EA8FE"/>
    </marker>
  </defs>

  <rect width="1280" height="500" rx="22" fill="url(#bg)"/>
  <rect x="1" y="1" width="1278" height="498" rx="22" fill="none" stroke="#FFFFFF" stroke-opacity="0.07"/>

  <!-- TOP BAND -->
  <text x="48" y="80" font-family="ui-sans-serif, system-ui, -apple-system, Segoe UI, Roboto, Helvetica, sans-serif" font-size="44" font-weight="800" letter-spacing="-0.5" fill="#FFFFFF">Brand<tspan fill="#6EA8FE">Docs</tspan></text>

  <text x="1232" y="56" text-anchor="end" font-family="ui-sans-serif, system-ui, sans-serif" font-size="17" font-weight="600" fill="#C9D8F5">Your company's Office template, learned once.</text>
  <text x="1232" y="83" text-anchor="end" font-family="ui-sans-serif, system-ui, sans-serif" font-size="17" font-weight="500" fill="#9DB4E8">Unlimited on-brand documents, in the same format.</text>

  <line x1="48" y1="118" x2="1232" y2="118" stroke="#FFFFFF" stroke-opacity="0.08"/>

  <!-- NODE 1: company template -->
  <rect x="64" y="164" width="186" height="178" rx="14" fill="#18223F" stroke="#33467A" stroke-width="2"/>
  <rect x="64" y="164" width="186" height="34" rx="14" fill="#233A6B"/>
  <circle cx="90" cy="181" r="7" fill="#6EA8FE"/>
  <rect x="108" y="176" width="60" height="9" rx="4.5" fill="#5778B0"/>
  <text x="90" y="254" font-family="Georgia, 'Times New Roman', serif" font-size="36" font-weight="700" fill="#EAF1FF">Aa</text>
  <rect x="90" y="272" width="24" height="24" rx="6" fill="#2B7CD3"/>
  <rect x="118" y="272" width="24" height="24" rx="6" fill="#E0742B"/>
  <rect x="146" y="272" width="24" height="24" rx="6" fill="#2BA45F"/>
  <rect x="174" y="272" width="24" height="24" rx="6" fill="#F472B6"/>
  <rect x="90" y="312" width="140" height="8" rx="4" fill="#2E3C68"/>
  <rect x="90" y="326" width="112" height="8" rx="4" fill="#283455"/>
  <text x="157" y="372" text-anchor="middle" font-family="ui-monospace, SFMono-Regular, Menlo, monospace" font-size="14.5" fill="#9DB4E8">your company template</text>
  <text x="157" y="392" text-anchor="middle" font-family="ui-monospace, SFMono-Regular, Menlo, monospace" font-size="12" fill="#6E84B8">.docx · .pptx · .xlsx</text>

  <!-- STEP 1: EXTRACT -->
  <line x1="256" y1="254" x2="459" y2="254" stroke="#4A5E97" stroke-width="3" stroke-linecap="round" marker-end="url(#arrow)"/>
  <circle cx="323" cy="212" r="14" fill="#6EA8FE"/>
  <text x="323" y="218" text-anchor="middle" font-family="ui-sans-serif, system-ui, sans-serif" font-size="16" font-weight="800" fill="#0B1022">1</text>
  <text x="343" y="218" font-family="ui-sans-serif, system-ui, sans-serif" font-size="17" font-weight="700" fill="#9DC0FF">EXTRACT</text>

  <!-- NODE 2: Brand Profile -->
  <g transform="translate(51,0)">
  <rect x="414" y="152" width="320" height="206" rx="16" fill="#16213F" stroke="url(#accent)" stroke-width="2.2"/>
  <g transform="translate(436,176)">
    <rect x="0" y="0" width="34" height="34" rx="6" fill="#0E1730" stroke="#6EA8FE" stroke-width="2"/>
    <rect x="8" y="0" width="18" height="11" rx="1.5" fill="#6EA8FE"/>
    <rect x="8" y="19" width="18" height="12" rx="1.5" fill="none" stroke="#6EA8FE" stroke-width="1.6"/>
  </g>
  <text x="486" y="194" font-family="ui-sans-serif, system-ui, sans-serif" font-size="21" font-weight="700" fill="#FFFFFF">Brand Profile</text>
  <text x="486" y="218" font-family="ui-monospace, SFMono-Regular, Menlo, monospace" font-size="13" fill="#8FA6D8">your reusable brand-kit/</text>
  <line x1="430" y1="236" x2="718" y2="236" stroke="#2C3A66"/>
  <g font-family="ui-sans-serif, system-ui, sans-serif" font-size="13.5" font-weight="500">
    <rect x="430" y="252" width="138" height="34" rx="9" fill="#1C2A4C" stroke="#34467A"/>
    <circle cx="444" cy="269" r="3" fill="#6EA8FE"/><text x="454" y="274" fill="#DCE7FF">colors &amp; fonts</text>
    <rect x="578" y="252" width="140" height="34" rx="9" fill="#1C2A4C" stroke="#34467A"/>
    <circle cx="592" cy="269" r="3" fill="#6EA8FE"/><text x="602" y="274" fill="#DCE7FF">styles -&gt; roles</text>
    <rect x="430" y="294" width="138" height="34" rx="9" fill="#1C2A4C" stroke="#34467A"/>
    <circle cx="444" cy="311" r="3" fill="#6EA8FE"/><text x="454" y="316" fill="#DCE7FF">structure</text>
    <rect x="578" y="294" width="140" height="34" rx="9" fill="#1C2A4C" stroke="#34467A"/>
    <circle cx="592" cy="311" r="3" fill="#6EA8FE"/><text x="602" y="316" fill="#DCE7FF">layouts &amp; logos</text>
  </g>
  </g>

  <!-- STEP 2: GENERATE -->
  <line x1="791" y1="254" x2="994" y2="254" stroke="#4A5E97" stroke-width="3" stroke-linecap="round" marker-end="url(#arrow)"/>
  <circle cx="852" cy="212" r="14" fill="#6EA8FE"/>
  <text x="852" y="218" text-anchor="middle" font-family="ui-sans-serif, system-ui, sans-serif" font-size="16" font-weight="800" fill="#0B1022">2</text>
  <text x="872" y="218" font-family="ui-sans-serif, system-ui, sans-serif" font-size="17" font-weight="700" fill="#9DC0FF">GENERATE</text>

  <!-- NODE 3: on-brand documents (same format) -->
  <g transform="translate(90,0)">
  <rect x="940" y="172" width="170" height="160" rx="12" fill="#131D36" stroke="#29396A" stroke-width="1.6"/>
  <rect x="925" y="184" width="170" height="160" rx="12" fill="#172340" stroke="#34467A" stroke-width="1.6"/>
  <rect x="910" y="196" width="170" height="160" rx="12" fill="#1B2A4E" stroke="url(#accent)" stroke-width="2"/>
  <rect x="910" y="196" width="170" height="30" rx="12" fill="#244A86"/>
  <circle cx="930" cy="211" r="6" fill="#6EA8FE"/>
  <rect x="944" y="207" width="56" height="8" rx="4" fill="#4E6BA8"/>
  <rect x="928" y="242" width="20" height="20" rx="5" fill="#2B7CD3"/>
  <rect x="954" y="242" width="20" height="20" rx="5" fill="#E0742B"/>
  <rect x="980" y="242" width="20" height="20" rx="5" fill="#2BA45F"/>
  <rect x="928" y="282" width="132" height="8" rx="4" fill="#33467A"/>
  <rect x="928" y="298" width="108" height="8" rx="4" fill="#2C3C68"/>
  <rect x="928" y="314" width="124" height="8" rx="4" fill="#2C3C68"/>
  <text x="1010" y="382" text-anchor="middle" font-family="ui-sans-serif, system-ui, sans-serif" font-size="14.5" font-weight="500" fill="#C9D8F5">on-brand documents</text>
  </g>

  <!-- FOOTER: one skill per format -->
  <line x1="48" y1="430" x2="1232" y2="430" stroke="#FFFFFF" stroke-opacity="0.08"/>
  <text x="173" y="468" font-family="ui-sans-serif, system-ui, sans-serif" font-size="14" font-weight="600" fill="#9DB4E8">One skill per format - same type in, same type out:</text>
  <g font-family="ui-sans-serif, system-ui, sans-serif" transform="translate(109,0)">
    <rect x="466" y="447" width="150" height="32" rx="9" fill="#16213F" stroke="#2C3A66"/>
    <rect x="480" y="455" width="18" height="18" rx="4" fill="#102742" stroke="#2B7CD3" stroke-width="1.4"/>
    <text x="489" y="468" text-anchor="middle" font-size="11.5" font-weight="800" fill="#7FB6F2">W</text>
    <text x="508" y="468" font-size="14" fill="#EAF1FF" font-weight="600">Word <tspan fill="#7E96CC" font-family="ui-monospace, Menlo, monospace" font-size="12.5">.docx</tspan></text>

    <rect x="632" y="447" width="190" height="32" rx="9" fill="#16213F" stroke="#2C3A66"/>
    <rect x="646" y="455" width="18" height="18" rx="4" fill="#33240F" stroke="#E0742B" stroke-width="1.4"/>
    <text x="655" y="468" text-anchor="middle" font-size="11.5" font-weight="800" fill="#F2A368">P</text>
    <text x="674" y="468" font-size="14" fill="#EAF1FF" font-weight="600">PowerPoint <tspan fill="#7E96CC" font-family="ui-monospace, Menlo, monospace" font-size="12.5">.pptx</tspan></text>

    <rect x="838" y="447" width="148" height="32" rx="9" fill="#16213F" stroke="#2C3A66"/>
    <rect x="852" y="455" width="18" height="18" rx="4" fill="#0F2A1C" stroke="#2BA45F" stroke-width="1.4"/>
    <text x="861" y="468" text-anchor="middle" font-size="11.5" font-weight="800" fill="#6FD79E">X</text>
    <text x="880" y="468" font-size="14" fill="#EAF1FF" font-weight="600">Excel <tspan fill="#7E96CC" font-family="ui-monospace, Menlo, monospace" font-size="12.5">.xlsx</tspan></text>
  </g>
</svg>
